<?xml version="1.0" encoding="UTF-8" standalone="no"?>
<svg
   version="1.1"
   id="svg2"
   xml:space="preserve"
   width="470"
   height="100"
   viewBox="0 0 470 100"
   sodipodi:docname="logofullwhite.svg"
   inkscape:version="1.1.2 (b8e25be833, 2022-02-05)"
   xmlns:inkscape="http://www.inkscape.org/namespaces/inkscape"
   xmlns:sodipodi="http://sodipodi.sourceforge.net/DTD/sodipodi-0.dtd"
   xmlns="http://www.w3.org/2000/svg"
   xmlns:svg="http://www.w3.org/2000/svg"
   xmlns:rdf="http://www.w3.org/1999/02/22-rdf-syntax-ns#"
   xmlns:cc="http://creativecommons.org/ns#"
   xmlns:dc="http://purl.org/dc/elements/1.1/"><metadata
     id="metadata8"><rdf:RDF><cc:Work
         rdf:about=""><dc:format>image/svg+xml</dc:format><dc:type
           rdf:resource="http://purl.org/dc/dcmitype/StillImage" /></cc:Work></rdf:RDF></metadata><defs
     id="defs6"><inkscape:path-effect
       effect="fillet_chamfer"
       id="path-effect16753"
       is_visible="true"
       lpeversion="1"
       satellites_param="F,0,0,1,0,8.4563169,0,1 @ F,0,0,1,0,1.4026772,0,1 @ F,0,0,1,0,8.4563169,0,1 | F,0,1,1,0,1.0689567,0,1 @ F,0,1,1,0,1.0689567,0,1 | F,0,1,1,0,1.0689567,0,1 @ F,0,1,1,0,1.0689567,0,1 @ F,0,1,1,0,1.0689567,0,1 | F,0,1,1,0,1.0689567,0,1 @ F,0,1,1,0,1.0689567,0,1 @ F,0,1,1,0,1.0689567,0,1 | F,0,1,1,0,1.0689567,0,1 @ F,0,1,1,0,1.0689567,0,1 @ F,0,1,1,0,1.0689567,0,1 | F,0,0,1,0,8.4563169,0,1 @ F,0,0,1,0,2.1349266,0,1 @ F,0,0,1,0,8.4563169,0,1 | F,0,0,1,0,8.4563169,0,1 @ F,0,0,1,0,1.4026772,0,1 @ F,0,0,1,0,8.4563169,0,1 | F,0,0,1,0,8.4563169,0,1 @ F,0,0,1,0,2.1349266,0,1 @ F,0,0,1,0,8.4563169,0,1"
       unit="px"
       method="arc"
       mode="F"
       radius="0"
       chamfer_steps="1"
       flexible="false"
       use_knot_distance="true"
       apply_no_radius="true"
       apply_with_radius="true"
       only_selected="false"
       hide_knots="false" /><inkscape:path-effect
       effect="fillet_chamfer"
       id="path-effect15573"
       is_visible="true"
       lpeversion="1"
       satellites_param="F,0,0,1,0,0,0,1 @ F,0,0,1,0,0,0,1 @ F,0,0,1,0,0,0,1 | F,0,0,1,0,0,0,1 @ F,0,0,1,0,0,0,1 | F,0,0,1,0,0,0,1 @ F,0,0,1,0,0,0,1 @ F,0,0,1,0,0,0,1 | F,0,0,1,0,0,0,1 @ F,0,0,1,0,0,0,1 @ F,0,0,1,0,0,0,1 | F,0,0,1,0,0,0,1 @ F,0,0,1,0,0,0,1 @ F,0,0,1,0,0,0,1 | F,0,0,1,0,0,0,1 @ F,0,0,1,0,0,0,1 @ F,0,0,1,0,0,0,1 | F,0,0,1,0,0,0,1 @ F,0,0,1,0,0,0,1 @ F,0,0,1,0,0,0,1 | F,0,0,1,0,0,0,1 @ F,0,0,1,0,0,0,1 @ F,0,0,1,0,0,0,1 @ F,0,0,1,0,0,0,1"
       unit="px"
       method="auto"
       mode="F"
       radius="0"
       chamfer_steps="1"
       flexible="false"
       use_knot_distance="true"
       apply_no_radius="true"
       apply_with_radius="true"
       only_selected="false"
       hide_knots="false" /><inkscape:path-effect
       effect="fillet_chamfer"
       id="path-effect14993"
       is_visible="true"
       lpeversion="1"
       satellites_param="F,0,1,1,0,8.3692683,0,1 @ F,0,1,1,0,8.3692683,0,1 @ F,0,1,1,0,8.3692683,0,1 | F,0,1,1,0,8.3692683,0,1 @ F,0,1,1,0,8.3692683,0,1 | F,0,1,1,0,8.3692683,0,1 @ F,0,1,1,0,8.3692683,0,1 @ F,0,1,1,0,8.3692683,0,1 | F,0,1,1,0,8.3692683,0,1 @ F,0,1,1,0,8.3692683,0,1 @ F,0,1,1,0,8.3692683,0,1 | F,0,1,1,0,8.3692683,0,1 @ F,0,1,1,0,8.3692683,0,1 @ F,0,1,1,0,8.3692683,0,1 | F,0,1,1,0,8.3692683,0,1 @ F,0,1,1,0,8.3692683,0,1 @ F,0,1,1,0,8.3692683,0,1 @ F,0,1,1,0,8.3692683,0,1 | F,0,1,1,0,8.3692683,0,1 @ F,0,1,1,0,8.3692683,0,1 @ F,0,1,1,0,8.3692683,0,1 | F,0,1,1,0,8.3692683,0,1 @ F,0,0,1,0,8.3692683,0,1 @ F,0,1,1,0,8.3692683,0,1 @ F,0,1,1,0,8.3692683,0,1 @ F,0,1,1,0,8.3692683,0,1"
       unit="px"
       method="auto"
       mode="F"
       radius="0"
       chamfer_steps="1"
       flexible="false"
       use_knot_distance="true"
       apply_no_radius="true"
       apply_with_radius="true"
       only_selected="false"
       hide_knots="false" /><inkscape:path-effect
       effect="fillet_chamfer"
       id="path-effect10301"
       is_visible="true"
       lpeversion="1"
       satellites_param="F,0,0,1,0,0,0,1 @ F,0,0,1,0,0,0,1 @ F,0,0,1,0,0,0,1 | F,0,0,1,0,0,0,1 @ F,0,0,1,0,0,0,1 | F,0,0,1,0,0,0,1 @ F,0,0,1,0,0,0,1 @ F,0,0,1,0,0,0,1 | F,0,0,1,0,0,0,1 @ F,0,0,1,0,0,0,1 @ F,0,0,1,0,0,0,1 | F,0,0,1,0,0,0,1 @ F,0,0,1,0,0,0,1 @ F,0,0,1,0,0,0,1 @ F,0,0,1,0,0,0,1 | F,0,0,1,0,0,0,1 @ F,0,0,1,0,0,0,1 @ F,0,0,1,0,0,0,1 @ F,0,0,1,0,0,0,1 @ F,0,0,1,0,0,0,1 | F,0,0,1,0,0,0,1 @ F,0,0,1,0,0,0,1 @ F,0,0,1,0,0,0,1 | F,0,0,1,0,0,0,1 @ F,0,0,1,0,0,0,1 @ F,0,0,1,0,0,0,1 @ F,0,0,1,0,0,0,1 @ F,0,0,1,0,0,0,1 @ F,0,0,1,0,0,0,1"
       unit="px"
       method="arc"
       mode="F"
       radius="0"
       chamfer_steps="1"
       flexible="false"
       use_knot_distance="true"
       apply_no_radius="true"
       apply_with_radius="true"
       only_selected="false"
       hide_knots="false" /><inkscape:path-effect
       effect="fillet_chamfer"
       id="path-effect7376"
       is_visible="true"
       lpeversion="1"
       satellites_param="F,0,0,1,0,7.1060061,0,1 @ F,0,0,1,0,9.329811,0,1 @ F,0,0,1,0,0,0,1 | F,0,0,1,0,9.7161624,0,1 @ F,0,0,1,0,0,0,1 @ F,0,0,1,0,9.329811,0,1 | F,0,0,1,0,0,0,1 @ F,0,0,1,0,0,0,1 @ F,0,0,1,0,7.2107102,0,1 | F,0,0,1,0,0,0,1 @ F,0,0,1,0,0,0,1 @ F,0,0,1,0,0,0,1 | F,0,0,1,0,0,0,1 @ F,0,0,1,0,0,0,1 @ F,0,0,1,0,0,0,1 | F,0,0,1,0,9.329811,0,1 @ F,0,0,1,0,0,0,1 @ F,0,0,1,0,10.21778,0,1 @ F,0,0,1,0,0,0,1 @ F,0,0,1,0,0,0,1 | F,0,0,1,0,0,0,1 @ F,0,0,1,0,0,0,1 @ F,0,0,1,0,0,0,1 @ F,0,0,1,0,0,0,1 | F,0,0,1,0,9.329811,0,1 @ F,0,0,1,0,0,0,1 @ F,0,0,1,0,0,0,1 @ F,0,0,1,0,0,0,1 @ F,0,0,1,0,7.5977352,0,1"
       unit="px"
       method="arc"
       mode="F"
       radius="0"
       chamfer_steps="1"
       flexible="false"
       use_knot_distance="true"
       apply_no_radius="true"
       apply_with_radius="true"
       only_selected="false"
       hide_knots="false" /><inkscape:path-effect
       effect="fillet_chamfer"
       id="path-effect7374"
       is_visible="false"
       lpeversion="1"
       satellites_param="F,0,0,1,0,0,0,1 @ F,0,0,1,0,0,0,1 @ F,0,0,1,0,0,0,1 @ F,0,0,1,0,0,0,1"
       unit="px"
       method="auto"
       mode="F"
       radius="0"
       chamfer_steps="1"
       flexible="false"
       use_knot_distance="true"
       apply_no_radius="true"
       apply_with_radius="true"
       only_selected="false"
       hide_knots="false" /><inkscape:path-effect
       effect="fillet_chamfer"
       id="path-effect6747"
       is_visible="true"
       lpeversion="1"
       satellites_param="F,0,0,1,0,9.5445695,0,1 @ F,0,0,1,0,9.5445695,0,1 @ F,0,0,1,0,0,0,1 | F,0,0,1,0,9.5445695,0,1 @ F,0,0,1,0,0,0,1 @ F,0,0,1,0,9.5445695,0,1 | F,0,0,1,0,0,0,1 @ F,0,0,1,0,0,0,1 @ F,0,0,1,0,0,0,1 | F,0,0,1,0,0,0,1 @ F,0,0,1,0,0,0,1 @ F,0,0,1,0,0,0,1 | F,0,0,1,0,0,0,1 @ F,0,0,1,0,0,0,1 @ F,0,0,1,0,0,0,1 | F,0,0,1,0,9.5445695,0,1 @ F,0,0,1,0,0,0,1 @ F,0,0,1,0,9.5445695,0,1 @ F,0,0,1,0,0,0,1 @ F,0,0,1,0,0,0,1 | F,0,0,1,0,0,0,1 @ F,0,0,1,0,0,0,1 @ F,0,0,1,0,0,0,1 @ F,0,0,1,0,0,0,1 | F,0,0,1,0,9.5445695,0,1 @ F,0,0,1,0,0,0,1 @ F,0,0,1,0,0,0,1 @ F,0,0,1,0,0,0,1 @ F,0,1,1,0,0.049509047,0,1 @ F,0,0,1,0,9.5445695,0,1"
       unit="px"
       method="arc"
       mode="F"
       radius="0"
       chamfer_steps="1"
       flexible="false"
       use_knot_distance="true"
       apply_no_radius="true"
       apply_with_radius="true"
       only_selected="false"
       hide_knots="false" /><inkscape:path-effect
       effect="fillet_chamfer"
       id="path-effect6425"
       is_visible="true"
       lpeversion="1"
       satellites_param="F,0,0,1,0,0,0,1 @ F,0,0,1,0,0,0,1 @ F,0,0,1,0,0,0,1 | F,0,0,1,0,0,0,1 @ F,0,0,1,0,0,0,1 @ F,0,0,1,0,0,0,1 | F,0,0,1,0,0,0,1 @ F,0,0,1,0,0,0,1 @ F,0,0,1,0,0,0,1 | F,0,0,1,0,0,0,1 @ F,0,0,1,0,0,0,1 @ F,0,0,1,0,0,0,1 | F,0,0,1,0,0,0,1 @ F,0,0,1,0,0,0,1 @ F,0,0,1,0,0,0,1 | F,0,0,1,0,0,0,1 @ F,0,0,1,0,0,0,1 @ F,0,0,1,0,0,0,1 @ F,0,0,1,0,0,0,1 @ F,0,0,1,0,0,0,1 | F,0,0,1,0,0,0,1 @ F,0,0,1,0,0,0,1 @ F,0,0,1,0,0,0,1 @ F,0,0,1,0,0,0,1 | F,0,0,1,0,0,0,1 @ F,0,0,1,0,0,0,1 @ F,0,0,1,0,0,0,1 @ F,0,0,1,0,0,0,1 @ F,0,0,1,0,0,0,1 @ F,0,0,1,0,0,0,1 @ F,0,0,1,0,0,0,1"
       unit="px"
       method="auto"
       mode="F"
       radius="0"
       chamfer_steps="1"
       flexible="false"
       use_knot_distance="true"
       apply_no_radius="true"
       apply_with_radius="true"
       only_selected="false"
       hide_knots="false" /><inkscape:path-effect
       effect="fillet_chamfer"
       id="path-effect5838"
       is_visible="true"
       lpeversion="1"
       satellites_param="F,0,0,1,0,0,0,1 @ F,0,0,1,0,0,0,1 @ F,0,0,1,0,0,0,1 | F,0,0,1,0,0,0,1 @ F,0,0,1,0,0,0,1 @ F,0,0,1,0,0,0,1 | F,0,0,1,0,0,0,1 @ F,0,0,1,0,0,0,1 @ F,0,0,1,0,0,0,1 | F,0,0,1,0,0,0,1 @ F,0,0,1,0,0,0,1 @ F,0,0,1,0,0,0,1 | F,0,0,1,0,0,0,1 @ F,0,0,1,0,0,0,1 @ F,0,0,1,0,0,0,1 | F,0,0,1,0,0,0,1 @ F,0,0,1,0,0,0,1 @ F,0,0,1,0,0,0,1 @ F,0,0,1,0,0,0,1 @ F,0,0,1,0,0,0,1 | F,0,0,1,0,0,0,1 @ F,0,0,1,0,0,0,1 @ F,0,0,1,0,0,0,1 @ F,0,0,1,0,0,0,1 | F,0,0,1,0,0,0,1 @ F,0,0,1,0,0,0,1 @ F,0,0,1,0,0,0,1 @ F,0,0,1,0,0,0,1 @ F,0,0,1,0,0,0,1 @ F,0,0,1,0,0,0,1 @ F,0,0,1,0,0,0,1 @ F,0,0,1,0,0,0,1"
       unit="px"
       method="auto"
       mode="F"
       radius="0"
       chamfer_steps="1"
       flexible="false"
       use_knot_distance="true"
       apply_no_radius="true"
       apply_with_radius="true"
       only_selected="false"
       hide_knots="false" /><inkscape:path-effect
       effect="fillet_chamfer"
       id="path-effect5528"
       is_visible="true"
       lpeversion="1"
       satellites_param="F,0,0,1,0,5,0,1 @ F,0,0,1,0,5,0,1 @ F,0,0,1,0,5,0,1 | F,0,0,1,0,5,0,1 @ F,0,0,1,0,5,0,1 @ F,0,0,1,0,5,0,1 | F,0,0,1,0,5,0,1 @ F,0,0,1,0,5,0,1 @ F,0,0,1,0,5,0,1 | F,0,0,1,0,5,0,1 @ F,0,0,1,0,5,0,1 @ F,0,0,1,0,5,0,1 | F,0,0,1,0,5,0,1 @ F,0,0,1,0,5,0,1 @ F,0,0,1,0,5,0,1 | F,0,0,1,0,5,0,1 @ F,0,0,1,0,5,0,1 @ F,0,0,1,0,5,0,1 @ F,0,0,1,0,5,0,1 @ F,0,0,1,0,5,0,1 | F,0,0,1,0,5,0,1 @ F,0,0,1,0,5,0,1 @ F,0,0,1,0,5,0,1 @ F,0,0,1,0,5,0,1 | F,0,0,1,0,5,0,1 @ F,0,0,1,0,5,0,1 @ F,0,0,1,0,5,0,1 @ F,0,0,1,0,5,0,1 @ F,0,0,1,0,5,0,1 @ F,0,0,1,0,5,0,1 @ F,0,0,1,0,5,0,1 @ F,0,0,1,0,5,0,1"
       unit="px"
       method="auto"
       mode="F"
       radius="0"
       chamfer_steps="1"
       flexible="false"
       use_knot_distance="true"
       apply_no_radius="true"
       apply_with_radius="true"
       only_selected="false"
       hide_knots="true" /><inkscape:path-effect
       effect="fillet_chamfer"
       id="path-effect827"
       is_visible="false"
       lpeversion="1"
       satellites_param="F,0,0,1,0,2,0,1 @ F,0,0,1,0,2,0,1 @ F,0,0,1,0,2,0,1 @ F,0,0,1,0,2,0,1 @ F,0,0,1,0,2,0,1 @ F,0,0,1,0,2,0,1 @ F,0,0,1,0,2,0,1 @ F,0,0,1,0,2,0,1 @ F,0,0,1,0,2,0,1 | F,0,0,1,0,2,0,1 @ F,0,0,1,0,2,0,1 @ F,0,0,1,0,2,0,1 | F,0,0,1,0,2,0,1 @ F,0,0,1,0,2,0,1 @ F,0,0,1,0,2,0,1 @ F,0,0,1,0,2,0,1 | F,0,0,1,0,2,0,1 @ F,0,0,1,0,2,0,1 @ F,0,0,1,0,2,0,1 @ F,0,0,1,0,2,0,1 @ F,0,0,1,0,2,0,1 @ F,0,0,1,0,2,0,1 @ F,0,0,1,0,2,0,1 @ F,0,0,1,0,2,0,1 @ F,0,0,1,0,2,0,1 @ F,0,0,1,0,2,0,1 | F,0,0,1,0,2,0,1 @ F,0,0,1,0,2,0,1 @ F,0,0,1,0,2,0,1 @ F,0,0,1,0,2,0,1 @ F,0,0,1,0,2,0,1 @ F,0,0,1,0,2,0,1 @ F,0,0,1,0,2,0,1 @ F,0,0,1,0,2,0,1 @ F,0,0,1,0,2,0,1 @ F,0,0,1,0,2,0,1 @ F,0,0,1,0,2,0,1 @ F,0,0,1,0,2,0,1 @ F,0,0,1,0,2,0,1 @ F,0,0,1,0,2,0,1 @ F,0,0,1,0,2,0,1 @ F,0,0,1,0,2,0,1 @ F,0,0,1,0,2,0,1 | F,0,0,1,0,2,0,1 @ F,0,0,1,0,2,0,1 @ F,0,0,1,0,2,0,1 @ F,0,0,1,0,2,0,1 @ F,0,0,1,0,2,0,1 | F,0,0,1,0,2,0,1 @ F,0,0,1,0,2,0,1 @ F,0,0,1,0,2,0,1 @ F,0,0,1,0,2,0,1 @ F,0,0,1,0,2,0,1 | F,0,0,1,0,2,0,1 @ F,0,0,1,0,2,0,1 @ F,0,0,1,0,2,0,1 @ F,0,0,1,0,2,0,1 @ F,0,0,1,0,2,0,1 @ F,0,0,1,0,2,0,1 @ F,0,0,1,0,2,0,1 @ F,0,0,1,0,2,0,1 @ F,0,0,1,0,2,0,1 @ F,0,0,1,0,2,0,1 @ F,0,0,1,0,2,0,1 | F,0,0,1,0,2,0,1 @ F,0,0,1,0,2,0,1 @ F,0,0,1,0,2,0,1 @ F,0,0,1,0,2,0,1 @ F,0,0,1,0,2,0,1 @ F,0,0,1,0,2,0,1 @ F,0,0,1,0,2,0,1 @ F,0,0,1,0,2,0,1 @ F,0,0,1,0,2,0,1 @ F,0,0,1,0,2,0,1 | F,0,0,1,0,2,0,1 @ F,0,0,1,0,2,0,1 @ F,0,0,1,0,2,0,1 @ F,0,0,1,0,2,0,1 @ F,0,0,1,0,2,0,1 @ F,0,0,1,0,2,0,1 @ F,0,0,1,0,2,0,1 @ F,0,0,1,0,2,0,1 @ F,0,0,1,0,2,0,1 @ F,0,0,1,0,2,0,1 @ F,0,0,1,0,2,0,1 @ F,0,0,1,0,2,0,1 | F,0,0,1,0,2,0,1 @ F,0,0,1,0,2,0,1 @ F,0,0,1,0,2,0,1 @ F,0,0,1,0,2,0,1 | F,0,0,1,0,2,0,1 @ F,0,0,1,0,2,0,1"
       unit="px"
       method="auto"
       mode="F"
       radius="2"
       chamfer_steps="1"
       flexible="false"
       use_knot_distance="true"
       apply_no_radius="true"
       apply_with_radius="true"
       only_selected="false"
       hide_knots="false" /></defs><sodipodi:namedview
     pagecolor="#ffffff"
     bordercolor="#666666"
     borderopacity="1"
     objecttolerance="10"
     gridtolerance="10"
     guidetolerance="10"
     inkscape:pageopacity="0"
     inkscape:pageshadow="2"
     inkscape:window-width="2560"
     inkscape:window-height="1351"
     id="namedview4"
     inkscape:pagecheckerboard="0"
     showgrid="false"
     inkscape:snap-bbox="false"
     inkscape:snap-grids="false"
     inkscape:snap-to-guides="false"
     showguides="false"
     inkscape:zoom="2.8684454"
     inkscape:cx="266.34636"
     inkscape:cy="114.87058"
     inkscape:window-x="-9"
     inkscape:window-y="-9"
     inkscape:window-maximized="1"
     inkscape:current-layer="g13854"
     width="754.71997px" /><g
     inkscape:groupmode="layer"
     id="g15022"
     inkscape:label="text copy"
     style="display:inline"><g
       aria-label="MaxAsabin"
       id="text15020"
       style="font-size:111.614px;line-height:139.2px;letter-spacing:-1.84px;display:inline;fill:#ffffff;stroke-width:2.79035"
       transform="matrix(0.66674693,0,0,0.66674693,-22.041117,-96.349425)"><path
         id="path15040"
         style="font-weight:500;font-family:Effra;-inkscape-font-specification:'Effra, Medium';fill:#ffffff"
         d="m 675.94802,256.93906 v -52.34697 h 12.61238 l 0.33485,5.91554 q 6.47361,-7.03168 15.73757,-7.03168 9.71042,0 14.84466,5.80393 5.24586,5.69231 5.24586,15.84919 v 31.80999 h -13.17045 v -31.69838 q 0,-4.91102 -2.67874,-7.70137 -2.67873,-2.79035 -7.14329,-2.79035 -5.35748,0 -9.04074,4.01811 -3.57165,4.0181 -3.57165,9.82203 v 28.34996 z m -25.28215,-60.6064 v -13.84014 h 14.06336 v 13.84014 z m 0.44645,60.6064 v -52.34697 h 13.17046 v 52.34697 z m -60.66387,-1.67421 v -72.77233 h 13.17045 v 25.67122 q 1.67421,-1.67421 5.5807,-3.12519 3.90649,-1.5626 8.70589,-1.5626 10.93818,0 17.41179,7.70137 6.58522,7.58975 6.58522,18.97438 0,12.05431 -8.14782,20.31374 -8.14782,8.25944 -21.42989,8.25944 -11.94269,0 -21.87634,-3.46003 z m 13.17045,-28.79642 v 19.75568 q 3.01358,1.11614 8.48267,1.11614 7.58975,0 11.94269,-4.91101 4.46456,-5.02263 4.46456,-11.9427 0,-6.58523 -3.2368,-11.04979 -3.23681,-4.46456 -9.48719,-4.46456 -5.91554,0 -9.04074,3.01358 -3.12519,3.01358 -3.12519,8.48266 z m -36.33195,30.47063 -0.33484,-4.91102 q -2.23228,2.79035 -6.69684,4.68779 -4.35295,1.89744 -9.48719,1.89744 -7.1433,0 -12.61239,-4.35295 -5.46908,-4.46456 -5.46908,-12.61238 0,-8.92912 6.25038,-13.84014 6.25039,-4.91101 16.7421,-4.91101 2.45551,0 7.1433,0.22322 l 4.12972,0.22323 v -1.22775 q 0,-3.90649 -3.1252,-6.13877 -3.01357,-2.23228 -8.14782,-2.23228 -7.70136,0 -14.84466,4.57617 l -6.02716,-8.92912 q 9.26397,-6.58522 22.65765,-6.58522 9.93364,0 15.9608,5.24586 6.13877,5.24585 6.13877,13.72852 v 35.15841 z m -0.33484,-18.52793 v -5.13424 l -3.90649,-0.22323 q -4.24134,-0.22323 -6.25039,-0.22323 -5.91554,0 -8.70589,2.3439 -2.79035,2.34389 -2.79035,5.91554 0,7.14329 9.48719,7.14329 4.68779,0 8.37105,-2.90196 3.79488,-3.01358 3.79488,-6.92007 z m -84.99577,12.16593 7.92459,-8.59428 q 5.69232,5.69231 14.73305,5.69231 9.37558,0 9.37558,-4.7994 0,-2.34389 -2.67874,-4.0181 -2.56712,-1.67421 -10.60333,-3.57165 -16.7421,-4.24133 -16.7421,-16.07242 0,-7.36652 6.58523,-11.83108 6.58522,-4.57617 14.95627,-4.57617 12.724,0 20.53698,5.80393 l -6.80845,9.26396 q -5.46909,-4.12972 -13.72853,-4.12972 -8.37105,0 -8.37105,4.7994 0,2.34389 2.79035,3.79488 2.79035,1.33936 9.82204,3.01357 8.48266,1.89744 12.94722,5.80393 4.46456,3.90649 4.46456,11.04979 0,7.36652 -6.58523,11.9427 -6.47361,4.57617 -15.84918,4.57617 -15.51435,0 -22.76926,-8.14782 z m -73.61104,6.362 28.23834,-74.44654 h 14.50982 l 28.23834,74.44654 h -15.62596 l -6.47361,-18.86277 h -27.68027 l -6.47361,18.86277 z m 25.11315,-30.47063 h 19.75568 l -9.82203,-28.90802 z m -79.86145,30.47063 19.86729,-26.45252 -18.97438,-25.89445 h 16.63048 l 10.49172,15.1795 10.60333,-15.1795 h 14.84466 l -18.41631,24.55508 20.42536,27.79189 h -16.63048 l -11.9427,-17.07695 -12.05431,17.07695 z m -17.24596,0 -0.33484,-4.91102 q -2.23228,2.79035 -6.69684,4.68779 -4.35295,1.89744 -9.48719,1.89744 -7.1433,0 -12.61238,-4.35295 -5.46909,-4.46456 -5.46909,-12.61238 0,-8.92912 6.25039,-13.84014 6.25038,-4.91101 16.7421,-4.91101 2.4555,0 7.14329,0.22322 l 4.12972,0.22323 v -1.22775 q 0,-3.90649 -3.12519,-6.13877 -3.01358,-2.23228 -8.14782,-2.23228 -7.70137,0 -14.84466,4.57617 l -6.02716,-8.92912 q 9.26396,-6.58522 22.65764,-6.58522 9.93365,0 15.9608,5.24586 6.13877,5.24585 6.13877,13.72852 v 35.15841 z m -0.33484,-18.52793 v -5.13424 l -3.90649,-0.22323 q -4.24133,-0.22323 -6.25038,-0.22323 -5.91555,0 -8.7059,2.3439 -2.79035,2.34389 -2.79035,5.91554 0,7.14329 9.48719,7.14329 4.68779,0 8.37105,-2.90196 3.79488,-3.01358 3.79488,-6.92007 z m -116.69402,18.52793 3.57165,-74.44654 h 13.05884 l 20.64859,35.15841 20.31375,-35.15841 h 13.05883 l 3.57165,74.44654 h -13.72852 l -2.45551,-51.56567 -17.85824,30.35901 H 252.918 l -17.96986,-29.57771 -2.45551,50.78437 z" /></g></g><g
     id="g13854"
     inkscape:groupmode="layer"
     inkscape:label="smooth"
     transform="matrix(1.3333333,0,0,-1.3333333,0,779.76)"
     style="display:inline;opacity:1"><path
       id="path13852"
       style="fill:#ffffff;fill-opacity:1;fill-rule:nonzero;stroke:none;stroke-width:0.0127818"
       d="M 20.982461,577.78433 C 9.6872471,573.85114 5.3707761,567.85516 4.1191071,565.67186 a 2.9967534,2.9967534 0 0 1 -0.343216,-1.76353 l 0.873394,-9.8614 a 0.5630287,0.5630287 0 0 1 1.114923,-0.0182 c 1.853413,9.57141 7.6490559,17.73629 15.6297519,22.73762 a 0.55246962,0.55246962 0 0 1 -0.411499,1.01795 z m 13.652314,-6.18677 C 12.489931,564.99157 4.7247921,539.47633 20.55544,526.74341 a 0.28386045,0.28386045 0 0 1 0.456302,0.26612 c -2.79613,19.4103 4.073581,31.60856 13.869786,44.22293 a 0.23138096,0.23138096 0 0 1 -0.246753,0.3651 z m 18.556893,-0.88784 c -2.106066,-0.83038 -6.476131,-2.95783 -11.406886,-7.7139 a 0.55822144,0.55822144 0 0 1 0.09677,-0.87388 c 8.810932,-5.53221 14.833483,-12.63777 20.193075,-25.96161 a 0.39776985,0.39776985 0 0 1 0.690303,-0.0911 c 8.280017,11.42168 5.807666,28.44215 -8.248733,34.61245 a 1.7230464,1.7230464 0 0 1 -1.324533,0.0281 z M 36.371892,556.85218 c -4.827965,-6.31711 -8.327796,-14.21155 -10.445701,-21.65557 a 0.33041931,0.33041931 0 0 1 0.456608,-0.39046 c 5.235244,2.42929 12.8935,6.9216 16.639289,12.15099 a 1.167088,1.167088 0 0 1 0.07705,1.2222 c -1.941427,3.70168 -4.31456,6.8413 -5.833801,8.6886 a 0.57019838,0.57019838 0 0 1 -0.893437,-0.0158 z m 8.552683,-14.26781 c -3.589512,-7.00449 -8.211817,-13.36773 -15.75326,-19.35974 a 0.32893421,0.32893421 0 0 1 0.1382,-0.58156 c 6.610375,-1.27272 14.240491,-0.95532 20.500823,2.33999 a 0.97026899,0.97026899 0 0 1 0.495563,1.04258 c -1.189805,6.2564 -3.230553,12.72604 -4.784568,16.53684 a 0.32854084,0.32854084 0 0 1 -0.596758,0.0219 z m -38.5573499,-7.93596 1.776588,-20.0587 a 1.5555027,1.5555027 0 0 1 1.549039,-1.41828 l 18.9711529,-0.004 a 0.79638967,0.79638967 0 0 1 0.222395,1.55363 c -12.04687,4.2995 -18.163942,12.63618 -21.2500849,20.19462 a 0.65570738,0.65570738 0 0 1 -1.26909,-0.26662 z M 58.755385,516.80727 c 11.29522,3.93319 15.611692,9.92916 16.863357,12.11246 a 2.9967531,2.9967531 0 0 1 0.343214,1.76354 l -0.873391,9.86141 a 0.56302841,0.56302841 0 0 1 -1.114921,0.0181 c -1.85341,-9.57141 -7.649061,-17.73628 -15.629755,-22.7376 a 0.55246963,0.55246963 0 0 1 0.411496,-1.01796 z m 14.61524,43.13593 -1.776595,20.05869 a 1.5555029,1.5555029 0 0 1 -1.54904,1.41827 l -18.97115,0.004 a 0.67047144,0.67047144 0 0 1 -0.161952,-1.31417 c 10.283444,-3.37802 17.613926,-11.2355 21.269627,-20.40938 a 0.61318947,0.61318947 0 0 1 1.18911,0.24174 z"
       sodipodi:nodetypes="ccccccccccccccccccccccccccccccc" /></g></svg>
