<?xml version="1.0" encoding="UTF-8" standalone="no"?>
<svg
   width="128"
   height="128"
   viewBox="0 0 128 128"
   version="1.1"
   id="svg9"
   sodipodi:docname="4k.svg"
   inkscape:version="1.1.2 (b8e25be833, 2022-02-05)"
   xmlns:inkscape="http://www.inkscape.org/namespaces/inkscape"
   xmlns:sodipodi="http://sodipodi.sourceforge.net/DTD/sodipodi-0.dtd"
   xmlns="http://www.w3.org/2000/svg"
   xmlns:svg="http://www.w3.org/2000/svg">
  <sodipodi:namedview
     id="namedview11"
     pagecolor="#505050"
     bordercolor="#eeeeee"
     borderopacity="1"
     inkscape:pageshadow="0"
     inkscape:pageopacity="0"
     inkscape:pagecheckerboard="0"
     showgrid="false"
     inkscape:zoom="4.4061933"
     inkscape:cx="91.12174"
     inkscape:cy="88.171347"
     inkscape:window-width="2560"
     inkscape:window-height="1351"
     inkscape:window-x="-9"
     inkscape:window-y="-9"
     inkscape:window-maximized="1"
     inkscape:current-layer="layer9"
     inkscape:lockguides="true"
     showguides="false"
     inkscape:snap-text-baseline="false"
     inkscape:snap-smooth-nodes="true"
     inkscape:snap-midpoints="true"
     inkscape:snap-object-midpoints="true"
     inkscape:snap-intersection-paths="true"
     inkscape:object-paths="true" />
  <defs
     id="defs4">
    <inkscape:path-effect
       effect="fillet_chamfer"
       id="path-effect65559"
       is_visible="true"
       lpeversion="1"
       satellites_param="F,0,0,1,0,4.6090222,0,1 @ F,0,0,1,0,4.6090222,0,1 @ F,0,0,1,0,4.6090222,0,1 @ F,0,0,1,0,2.6798519,0,1 @ F,0,0,1,0,2.2950269,0,1 @ F,0,0,1,0,4.6090222,0,1 @ F,0,0,1,0,4.6090222,0,1 @ F,0,0,1,0,2.2950269,0,1 @ F,0,0,1,0,4.6090222,0,1 @ F,0,0,1,0,4.6090222,0,1 @ F,0,0,1,0,3.4445719,0,1 @ F,0,0,1,0,4.6090222,0,1 | F,0,0,1,0,2.9992592,0,1 @ F,0,0,1,0,3.8522623,0,1 @ F,0,0,1,0,4.6090222,0,1 @ F,0,0,1,0,2.4400705,0,1 @ F,0,0,1,0,4.6090222,0,1 @ F,0,0,1,0,4.6090222,0,1 @ F,0,0,1,0,2.4400705,0,1 @ F,0,0,1,0,4.6090222,0,1 @ F,0,0,1,0,4.6090222,0,1 @ F,0,0,1,0,2.4400705,0,1 @ F,0,0,1,0,4.6090222,0,1 @ F,0,0,1,0,4.6090222,0,1 @ F,0,0,1,0,2.4400705,0,1 @ F,0,0,1,0,2.7111895,0,1 @ F,0,0,1,0,4.6090222,0,1 | F,0,0,1,0,0,0,1 @ F,0,0,1,0,0,0,1 @ F,0,0,1,0,0,0,1 @ F,0,0,1,0,0,0,1 @ F,0,0,1,0,0,0,1 @ F,0,0,1,0,0,0,1 @ F,0,0,1,0,0,0,1 @ F,0,0,1,0,0,0,1 | F,0,0,1,0,0,0,1 @ F,0,0,1,0,0,0,1 @ F,0,0,1,0,0,0,1 @ F,0,0,1,0,0,0,1 @ F,0,0,1,0,0,0,1 @ F,0,0,1,0,0,0,1 @ F,0,0,1,0,0,0,1 @ F,0,0,1,0,0,0,1"
       unit="px"
       method="arc"
       mode="F"
       radius="0"
       chamfer_steps="1"
       flexible="false"
       use_knot_distance="true"
       apply_no_radius="true"
       apply_with_radius="true"
       only_selected="false"
       hide_knots="false" />
    <style
       id="style2">
      .cls-1 {
        fill: none;
        stroke: #000;
        stroke-width: 16px;
      }

      .cls-1, .cls-2 {
        fill-rule: evenodd;
      }
    </style>
  </defs>
  <g
     inkscape:groupmode="layer"
     id="layer9"
     inkscape:label="4k"
     style="display:inline">
    <g
       aria-label="4K"
       id="text50040"
       style="font-weight:800;font-size:111.643px;line-height:1.25;font-family:Montserrat;-inkscape-font-specification:'Montserrat Ultra-Bold';letter-spacing:-1px;word-spacing:-17px;fill:#ffffff;stroke-width:2.79106"
       transform="matrix(0.63232442,0,0,0.63232442,0.68542981,-1.678041)">
      <path
         id="path64410"
         inkscape:path-effect="#path-effect65559"
         inkscape:original-d="m 104.17773,65.654297 v 78.150393 h 21.88282 v -19.57813 l 8.20703,-8.79297 22.38281,28.3711 h 25.67773 L 148.74609,100.21875 180.6543,65.654297 h -24.33985 l -30.2539,32.466797 V 65.654297 Z m -46.894527,0 -35.056641,48.787113 v 14.40234 h 41.308594 v 14.96094 H 85.082031 V 128.84375 H 96.693359 V 111.31641 H 85.082031 V 98.029297 H 64.205078 V 111.31641 H 48.367188 C 52.855976,103.5416 68.394713,82.074294 80.169922,65.654297 Z M 28.916016,27.957233 c -16.461925,0 -30.0000004,13.538076 -30.0000004,30 v 91.947257 c 0,16.46193 13.5380754,30 30.0000004,30 H 171.34375 c 16.46192,0 30,-13.53807 30,-30 V 57.957233 c 0,-16.461925 -13.53808,-30 -30,-30 z m 0,18 H 171.34375 c 6.73401,0 12,5.265987 12,12 v 91.947257 c 0,6.73402 -5.26599,12 -12,12 H 28.916016 c -6.734013,0 -12,-5.26598 -12,-12 V 57.957233 c 0,-6.734013 5.265987,-12 12,-12 z"
         d="m 104.17773,70.263319 0,68.932351 a 4.6090222,4.6090222 45 0 0 4.60902,4.60902 h 12.66478 a 4.6090222,4.6090222 135 0 0 4.60902,-4.60902 l 0,-12.28926 a 6.7986825,6.7986825 111.51298 0 1 1.82854,-4.63894 l 4.81252,-5.15611 a 1.9704458,1.9704458 2.3774995 0 1 2.98747,0.12403 l 18.10657,22.9508 a 9.5068858,9.5068858 25.864517 0 0 7.46376,3.6185 h 16.45969 a 2.2672467,2.2672467 116.19326 0 0 1.79599,-3.65102 l -29.36827,-38.11692 a 2.7193981,2.7193981 92.549102 0 1 0.15601,-3.504331 l 27.22513,-29.491522 a 2.017864,2.017864 66.355841 0 0 -1.48268,-3.3866 h -15.12181 a 10.594802,10.594802 156.48967 0 0 -7.75115,3.371959 l -24.76349,26.574791 a 1.3561357,1.3561357 21.489671 0 1 -2.34828,-0.924525 V 70.263319 a 4.6090222,4.6090222 45 0 0 -4.60902,-4.609022 h -12.66478 a 4.6090222,4.6090222 135 0 0 -4.60902,4.609022 z M 55.533027,68.089957 24.474497,111.31304 a 11.962642,11.962642 107.84982 0 0 -2.247935,6.98063 v 5.94106 a 4.6090222,4.6090222 45 0 0 4.609022,4.60902 h 34.259501 a 2.4400705,2.4400705 45 0 1 2.440071,2.44007 v 7.91185 a 4.6090222,4.6090222 45 0 0 4.609022,4.60902 h 12.328831 a 4.6090222,4.6090222 135 0 0 4.609022,-4.60902 v -7.91185 a 2.4400705,2.4400705 135 0 1 2.440071,-2.44007 h 4.562235 a 4.6090222,4.6090222 135 0 0 4.609022,-4.60902 l 0,-8.3093 a 4.6090222,4.6090222 45 0 0 -4.609022,-4.60902 l -4.562235,0 a 2.4400705,2.4400705 45 0 1 -2.440071,-2.44007 v -6.23802 A 4.6090222,4.6090222 45 0 0 80.473009,98.029297 H 68.8141 a 4.6090222,4.6090222 135 0 0 -4.609022,4.609023 v 6.23802 a 2.4400705,2.4400705 135 0 1 -2.44007,2.44007 H 51.078378 A 1.5193299,1.5193299 60.621781 0 1 49.773574,108.9987 C 55.05241,100.60383 67.203707,83.716384 77.48286,69.398735 A 2.3652913,2.3652913 62.829295 0 0 75.5609,65.654297 H 60.282462 a 5.848431,5.848431 152.84982 0 0 -4.749435,2.43566 z M 28.916016,27.957233 c -16.461925,0 -30.0000004,13.538076 -30.0000004,30 v 91.947257 c 0,16.46193 13.5380754,30 30.0000004,30 H 171.34375 c 16.46192,0 30,-13.53807 30,-30 V 57.957233 c 0,-16.461925 -13.53808,-30 -30,-30 z m 0,18 H 171.34375 c 6.73401,0 12,5.265987 12,12 v 91.947257 c 0,6.73402 -5.26599,12 -12,12 H 28.916016 c -6.734013,0 -12,-5.26598 -12,-12 V 57.957233 c 0,-6.734013 5.265987,-12 12,-12 z" />
    </g>
  </g>
</svg>
