<?xml version="1.0" encoding="UTF-8" standalone="no"?>
<!-- Generator: Adobe Illustrator 24.2.1, SVG Export Plug-In . SVG Version: 6.00 Build 0)  -->

<svg
   version="1.1"
   x="0px"
   y="0px"
   viewBox="0 0 579.61256 249"
   xml:space="preserve"
   id="svg348"
   sodipodi:docname="boosty.svg"
   width="579.61255"
   height="249"
   inkscape:version="1.1.2 (b8e25be833, 2022-02-05)"
   xmlns:inkscape="http://www.inkscape.org/namespaces/inkscape"
   xmlns:sodipodi="http://sodipodi.sourceforge.net/DTD/sodipodi-0.dtd"
   xmlns="http://www.w3.org/2000/svg"
   xmlns:svg="http://www.w3.org/2000/svg"><defs
   id="defs352" /><sodipodi:namedview
   id="namedview350"
   pagecolor="#505050"
   bordercolor="#eeeeee"
   borderopacity="1"
   inkscape:pageshadow="0"
   inkscape:pageopacity="0"
   inkscape:pagecheckerboard="0"
   showgrid="false"
   fit-margin-top="2.4"
   fit-margin-left="2"
   fit-margin-right="2"
   fit-margin-bottom="2"
   inkscape:zoom="1.7858016"
   inkscape:cx="239.1083"
   inkscape:cy="173.31152"
   inkscape:window-width="2560"
   inkscape:window-height="1351"
   inkscape:window-x="-9"
   inkscape:window-y="-9"
   inkscape:window-maximized="1"
   inkscape:current-layer="svg348" />
<style
   type="text/css"
   id="style328">
	.st0{fill:#242B2C;}
	.st1{fill:url(#SVGID_1_);}
</style>
<g
   id="text"
   transform="translate(-80.587426,-49)">
	<path
   class="st0"
   d="m 632.8,138.6 -23.1,35.9 -2.3,-35.9 h -19.3 -6 -7.9 c 3.1,-10.5 5.5,-19 5.5,-19 l 1.3,-4.2 h -25.5 l -1.2,4.2 -5.5,19 h -21.7 c -3.6,0 -5.4,0 -5.4,0 -22.3,0 -34.8,6.4 -40,18.4 -3,-11 -12.9,-18.4 -28.2,-18.4 -13.2,0 -24.9,4.9 -33.6,12.7 -4.5,-7.8 -13.4,-12.7 -25.8,-12.7 -14.2,0 -26.5,5.7 -35.5,14.4 -4.1,-8.7 -13.4,-14.4 -26.7,-14.4 -4.6,0 -8.9,0.6 -13,1.7 l 2,-6.9 c 0,-0.1 0.1,-0.2 0.1,-0.3 l 5.1,-17.7 h -25.4 l -16.2,55.8 c -0.4,1.1 -0.8,2.2 -1.1,3.4 -0.7,2.6 -1.2,5.1 -1.4,7.5 -2.1,15.6 4.7,27.3 23.6,28.1 1.7,0.2 3.5,0.3 5.5,0.3 13.4,0 25.9,-5.7 35.1,-14.4 3.9,8.7 13,14.4 27.1,14.4 12.5,0 24.3,-4.9 33.2,-12.7 4.3,7.8 13.1,12.7 26.2,12.7 28.4,0 49.6,0 63.6,0 19.7,0 30.8,-3.9 36.6,-12.3 0,8.1 4.6,12.3 16.2,12.3 9.4,0 22,-2.1 39.3,-6.3 L 563.3,240 h 25.4 l 69.5,-101.4 z m -298.5,35.9 c -2.4,8.2 -10,14.8 -17,14.8 -7,0 -10.8,-6.6 -8.4,-14.8 2.4,-8.2 10,-14.8 17,-14.8 7,0 10.8,6.6 8.4,14.8 z m 62.1,0 c -2.4,8.2 -10,14.8 -17,14.8 -7,0 -10.8,-6.6 -8.4,-14.8 2.4,-8.2 10,-14.8 17,-14.8 7,0 10.8,6.6 8.4,14.8 z m 34.1,0 c 2.4,-8.2 10,-14.8 17,-14.8 7,0 10.8,6.6 8.4,14.8 -2.3,8.1 -9.8,14.6 -16.7,14.8 -0.2,0 -0.4,0 -0.6,0 -6.8,-0.2 -10.4,-6.7 -8.1,-14.8 z m 81.7,12.2 c -1.3,3 -11.3,2.5 -13.8,2.6 0,0 -6.6,0 -24.6,0 3.3,-4.5 5.9,-9.5 7.4,-14.8 0.2,-0.5 0.3,-1.1 0.4,-1.6 2.7,3.8 8.3,7.2 19.2,9.4 10.4,2 12.3,1.4 11.4,4.4 z m 25.1,-8.1 c -2.2,-8.4 -11.5,-11.8 -24.6,-13.4 -5.5,-0.7 -8.6,-0.9 -7.9,-3.3 0.5,-1.8 3.3,-2.2 9.2,-2.2 3.7,0 8.1,0 13.2,0 h 15.6 z m 25.3,0.1 c 0,-0.2 2.5,-8.6 5.5,-19 h 16.1 l 2.6,26.9 c -26.5,5.7 -27.1,4.2 -24.2,-7.9 z"
   id="path330" />
</g>
<g
   id="sign"
   transform="translate(-80.587426,-49)">
	<g
   id="b_1_">
		<linearGradient
   id="SVGID_1_"
   gradientUnits="userSpaceOnUse"
   x1="188.30141"
   y1="75.559097"
   x2="123.8106"
   y2="295.4895">
			<stop
   offset="0"
   style="stop-color:#EF7829"
   id="stop333" />
			<stop
   offset="5.189538e-02"
   style="stop-color:#F07529"
   id="stop335" />
			<stop
   offset="0.3551"
   style="stop-color:#F0672B"
   id="stop337" />
			<stop
   offset="0.6673"
   style="stop-color:#F15E2C"
   id="stop339" />
			<stop
   offset="1"
   style="stop-color:#F15A2C"
   id="stop341" />
		</linearGradient>
		<path
   class="st1"
   d="M 87.5,163.9 120.2,51 h 50.1 l -10.1,35 c -0.1,0.2 -0.2,0.4 -0.3,0.6 L 133.3,179 h 24.8 c -10.4,25.9 -18.5,46.2 -24.3,60.9 C 88,239.4 75.2,206.6 86.4,167.8 m 47.5,72.2 60.4,-86.9 H 168.7 L 191,97.4 c 38.2,4 56.2,34.1 45.6,70.5 -11.3,39.1 -57.2,72.1 -101.8,72.1 -0.3,0 -0.6,0 -0.9,0 z"
   id="path344"
   style="fill:url(#SVGID_1_)" />
	</g>
</g>
</svg>
