<?xml version="1.0" encoding="UTF-8" standalone="no"?>
<!-- Generator: Adobe Illustrator 19.0.0, SVG Export Plug-In . SVG Version: 6.00 Build 0)  -->

<svg
   version="1.1"
   id="layer"
   x="0px"
   y="0px"
   viewBox="-153 -46 600.00021 74.00001"
   xml:space="preserve"
   sodipodi:docname="envato-elements-logo-vector.svg"
   width="600"
   height="74"
   inkscape:version="1.1.2 (b8e25be833, 2022-02-05)"
   xmlns:inkscape="http://www.inkscape.org/namespaces/inkscape"
   xmlns:sodipodi="http://sodipodi.sourceforge.net/DTD/sodipodi-0.dtd"
   xmlns="http://www.w3.org/2000/svg"
   xmlns:svg="http://www.w3.org/2000/svg"><defs
   id="defs191" /><sodipodi:namedview
   id="namedview189"
   pagecolor="#505050"
   bordercolor="#eeeeee"
   borderopacity="1"
   inkscape:pageshadow="0"
   inkscape:pageopacity="0"
   inkscape:pagecheckerboard="0"
   showgrid="false"
   units="mm"
   width="593mm"
   inkscape:zoom="1.8064116"
   inkscape:cx="329.93588"
   inkscape:cy="83.86793"
   inkscape:window-width="2560"
   inkscape:window-height="1351"
   inkscape:window-x="-9"
   inkscape:window-y="-9"
   inkscape:window-maximized="1"
   inkscape:current-layer="layer" />
<style
   type="text/css"
   id="style136">
	.st0{fill:#81B441;}
	.st1{fill:#121112;}
	.st2{fill:#84B840;}
</style>
<path
   class="st0"
   d="m -114.52072,-33.684225 c -1.49773,-0.798789 -5.89107,-0.299546 -10.98335,1.298032 -9.08622,6.090766 -16.67472,15.376687 -17.27381,29.9545846 -0.0999,0.3993945 -0.99849,0 -1.09834,-0.099849 -2.49621,-4.692885 -3.4947,-9.5854666 -1.39788,-16.6747176 0.3994,-0.698941 -0.79879,-1.397881 -1.09833,-1.298032 -0.3994,0.399394 -2.39637,2.496215 -3.59455,4.593036 -6.09077,10.683801 -2.09682,24.3630615 8.68683,30.353979 10.6838,5.990917 24.36306,2.096821 30.35398,-8.6868302 6.7897,-12.5809257 0.39939,-37.2435328 -3.59455,-39.4402028 z"
   id="path138"
   style="stroke-width:0.998486" />
<g
   id="g152"
   transform="matrix(0.99848617,0,0,0.99848617,-23.159233,-287.2997)">
	<path
   class="st1"
   d="m -53,259.9 c -12.8,0 -22,9.5 -22,22.6 0,13.3 9.2,22.5 22.5,22.5 6.7,0 12,-2.1 16.2,-6.4 1.3,-1.4 1.4,-2.7 1.4,-3.2 0,-2.1 -1.5,-3.6 -3.8,-3.6 -1.1,0 -2.1,0.4 -3.1,1.4 -2.4,2.2 -5.6,4.5 -10.7,4.5 -7.3,0 -13.1,-5.4 -13.5,-12.4 h 28.9 c 3.1,0 4.6,-1.5 4.6,-4.5 0,-0.8 0,-1.5 -0.1,-2.8 -1.6,-11.4 -9.2,-18.1 -20.4,-18.1 z m 0,7.1 c 7,0 11.4,4.5 11.6,11.6 h -24.7 c 0.8,-6.7 6.3,-11.6 13.1,-11.6 z"
   id="path140" />
	<path
   class="st1"
   d="m -4.9,259.9 c -5.9,0 -11.6,3.3 -13.8,8 V 265 c 0,-4.5 -3.5,-4.6 -4.2,-4.6 -2.1,0 -4.2,1.3 -4.2,4.6 v 34.6 c 0,4.6 3.6,4.9 4.3,4.9 0.7,0 4.5,-0.3 4.5,-4.9 V 281 c 0,-8.1 4.6,-13.7 11.2,-13.7 6.3,0 9.5,4.2 9.5,12.7 v 19.5 c 0,4.6 3.6,4.9 4.5,4.9 0.9,0 4.3,-0.3 4.3,-4.9 V 277.2 C 11,268.9 6.9,259.9 -4.9,259.9 Z"
   id="path142" />
	<path
   class="st1"
   d="m 50.8,260.4 c -2.1,0 -3.5,1.1 -4.3,3.5 l -12,30.3 -12,-30.3 c -1,-2.4 -2.4,-3.5 -4.5,-3.5 -2.4,0 -4.5,2 -4.5,4.2 0,0.6 0,1.3 0.6,2.5 l 13.8,32.7 c 1.7,3.9 4.3,4.7 6.3,4.7 2,0 4.7,-0.8 6.3,-4.7 l 14,-32.8 c 0.4,-1.1 0.6,-2 0.6,-2.4 0,-2.5 -1.8,-4.2 -4.3,-4.2 z"
   id="path144" />
	<path
   class="st1"
   d="m 76.4,259.9 c -5.6,0 -10.9,1.5 -14.8,4.5 -1.3,1 -2,2.1 -2,3.5 0,2 1.5,3.5 3.3,3.5 0.8,0 1.8,-0.3 2.7,-1 3.3,-2.2 6.4,-3.2 9.9,-3.2 6.6,0 10.2,3.3 10.2,9.1 v 1 c -14.7,0 -29.4,1.8 -29.4,14.5 0,9.1 7.8,13.3 15.5,13.3 6.1,0 11,-2.4 14.2,-7.1 v 2.2 c 0,3.3 2.2,4.5 4.2,4.5 0.4,0 3.9,-0.1 3.9,-4.5 v -23.3 c 0.1,-10.8 -6.4,-17 -17.7,-17 z m 7.6,23.7 h 1.8 v 2.1 c 0,7.4 -4.7,12.1 -12,12.1 -2,0 -8.5,-0.4 -8.5,-6.4 0,-7 10.6,-7.8 18.7,-7.8 z"
   id="path146" />
	<path
   class="st1"
   d="m 117.1,268.4 c 3.9,0 4,-2.9 4,-3.6 0,-1.8 -1.1,-3.6 -4,-3.6 h -8 V 253 c 0,-3.6 -2.4,-4.9 -4.3,-4.9 -0.7,0 -4.3,0.3 -4.3,4.9 v 38 c 0,8.8 4.3,13.4 12.6,13.4 2.1,0 4.2,-0.4 5.6,-1 1.5,-0.8 2.4,-2.1 2.4,-3.5 0,-2.1 -1.5,-3.5 -3.5,-3.5 -0.4,0 -1,0.1 -1.5,0.3 -0.7,0.1 -1.3,0.3 -1.8,0.3 -3.3,0 -4.9,-2.2 -4.9,-6.8 v -21.8 z"
   id="path148" />
	<path
   class="st1"
   d="m 146.3,259.9 c -13.3,0 -22.9,9.5 -22.9,22.5 0,6.3 2.4,12.1 6.6,16.2 4.2,4 10,6.4 16.3,6.4 13.1,0 23,-9.8 23,-22.6 0,-13 -9.8,-22.5 -23,-22.5 z m 0,37.5 c -9.1,0 -14,-7.7 -14,-15.1 0,-10.3 7.3,-15.1 14,-15.1 6.7,0 14,4.7 14,15.1 -0.2,10.4 -7.3,15.1 -14,15.1 z"
   id="path150" />
</g>
<g
   id="g186"
   transform="matrix(0.99848617,0,0,0.99848617,-23.159233,-287.2997)">
	<g
   id="g156">
		<path
   class="st2"
   d="m 198.7,306.2 c -3.8,0 -7.1,-1 -10.2,-3.1 -3.1,-2 -5.6,-4.7 -7.3,-8.2 -1.7,-3.3 -2.7,-7.3 -2.7,-11.4 v -1.8 c 0,-4.2 0.8,-8 2.5,-11.4 1.7,-3.5 4,-6.3 7,-8.2 2.9,-2 6.3,-2.9 9.8,-2.9 5.2,0 9.5,1.8 12.7,5.6 3.2,3.6 4.9,8.5 4.9,14.4 v 2.2 c 0,0.7 -0.6,1.3 -1.3,1.3 h -30.8 v 1 c 0,3.2 0.7,6.3 2.1,9.1 1.4,2.8 3.2,4.9 5.6,6.4 2.4,1.5 4.9,2.4 7.7,2.4 2.7,0 5,-0.4 6.8,-1.3 1.8,-0.8 3.5,-2.2 4.9,-4 0.4,-0.6 1.3,-0.7 1.8,-0.3 l 1.5,1.1 c 0.6,0.4 0.7,1.3 0.3,1.8 -3.4,4.8 -8.6,7.3 -15.3,7.3 z m -14.9,-28.5 h 27.1 c -0.1,-2.4 -0.7,-4.6 -1.7,-6.7 -1.1,-2.2 -2.7,-4 -4.6,-5.3 -2,-1.3 -4,-1.8 -6.6,-1.8 -3.8,0 -7,1.4 -9.6,4.2 -2.5,2.5 -4,5.9 -4.6,9.6 z"
   id="path154" />
	</g>
	<g
   id="g160">
		<path
   class="st2"
   d="m 223.3,305.4 h -2.1 c -0.7,0 -1.3,-0.6 -1.3,-1.3 v -60.8 c 0,-0.7 0.6,-1.3 1.3,-1.3 h 2.1 c 0.7,0 1.3,0.6 1.3,1.3 v 61 c 0,0.5 -0.6,1.1 -1.3,1.1 z"
   id="path158" />
	</g>
	<g
   id="g164">
		<path
   class="st2"
   d="m 249.1,306.2 c -3.8,0 -7.1,-1 -10.2,-3.1 -3.1,-2 -5.6,-4.7 -7.3,-8.2 -1.7,-3.3 -2.7,-7.3 -2.7,-11.4 v -1.8 c 0,-4.2 0.8,-8 2.5,-11.4 1.7,-3.5 4,-6.3 7,-8.2 2.9,-2 6.3,-2.9 9.8,-2.9 5.2,0 9.5,1.8 12.7,5.6 3.2,3.6 4.9,8.5 4.9,14.4 v 2.2 c 0,0.7 -0.6,1.3 -1.3,1.3 h -30.8 v 1 c 0,3.2 0.7,6.3 2.1,9.1 1.4,2.8 3.2,4.9 5.6,6.4 2.4,1.5 4.9,2.4 7.7,2.4 2.7,0 4.9,-0.4 6.8,-1.3 1.8,-0.8 3.5,-2.2 4.9,-4 0.4,-0.6 1.3,-0.7 1.8,-0.3 l 1.5,1.1 c 0.6,0.4 0.7,1.3 0.3,1.8 -3.4,4.8 -8.6,7.3 -15.3,7.3 z M 234,277.7 h 27.1 c -0.1,-2.4 -0.7,-4.6 -1.7,-6.7 -1.1,-2.2 -2.7,-4 -4.6,-5.3 -2,-1.3 -4.2,-1.8 -6.6,-1.8 -3.8,0 -7,1.4 -9.6,4.2 -2.3,2.5 -3.9,5.9 -4.6,9.6 z"
   id="path162" />
	</g>
	<g
   id="g168">
		<path
   class="st2"
   d="m 330.8,305.4 h -2.1 c -0.7,0 -1.3,-0.6 -1.3,-1.3 v -27.8 c 0,-4.3 -0.8,-7.5 -2.5,-9.6 -1.7,-2 -4.2,-2.9 -7.8,-2.8 -4.9,0.1 -8.5,2 -11.3,5.7 -1.5,2.1 -2.5,4.2 -2.7,6.1 v 28.5 c 0,0.7 -0.6,1.3 -1.3,1.3 h -2.1 c -0.7,0 -1.3,-0.6 -1.3,-1.3 v -28.9 c 0,-3.9 -0.8,-6.8 -2.5,-8.8 -1.5,-1.8 -4.3,-2.7 -8,-2.7 -4.3,0 -7.7,1.8 -10.5,5.7 -1.7,2.2 -2.8,4.9 -3.3,7.5 v 26.9 c 0,0.7 -0.6,1.3 -1.3,1.3 h -2.2 c -0.7,0 -1.3,-0.6 -1.3,-1.3 v -43 c 0,-0.7 0.6,-1.3 1.3,-1.3 h 2.2 c 0.7,0 1.3,0.6 1.3,1.3 v 5.2 c 1.1,-1.7 2.5,-2.9 4.2,-4 2.9,-2.1 6.1,-3.1 9.8,-3.1 3.9,0 7.1,0.8 9.6,2.7 1.8,1.3 3.2,3.1 4,5.4 1.3,-2 3.1,-3.6 5.2,-5 3.1,-2 6.6,-2.9 10.3,-2.9 5,0 8.8,1.5 11.3,4.3 2.5,2.8 3.8,7.1 3.8,12.7 v 28 c -0.2,0.6 -0.9,1.2 -1.5,1.2 z"
   id="path166" />
	</g>
	<g
   id="g172">
		<path
   class="st2"
   d="m 355.6,306.2 c -3.8,0 -7.1,-1 -10.2,-3.1 -3.1,-2 -5.6,-4.7 -7.3,-8.2 -1.7,-3.3 -2.7,-7.3 -2.7,-11.4 v -1.8 c 0,-4.2 0.8,-8 2.5,-11.4 1.7,-3.4 4,-6.3 7,-8.2 2.9,-2 6.3,-2.9 9.8,-2.9 5.2,0 9.5,1.8 12.7,5.6 3.2,3.6 4.9,8.5 4.9,14.4 v 2.2 c 0,0.7 -0.6,1.3 -1.3,1.3 h -30.8 v 1 c 0,3.2 0.7,6.3 2.1,9.1 1.4,2.8 3.2,4.9 5.6,6.4 2.4,1.5 4.9,2.4 7.7,2.4 2.7,0 5,-0.4 6.8,-1.3 1.8,-0.8 3.5,-2.2 4.9,-4 0.4,-0.6 1.3,-0.7 1.8,-0.3 l 1.5,1.1 c 0.6,0.4 0.7,1.3 0.3,1.8 -3.4,4.8 -8.6,7.3 -15.3,7.3 z m -15.1,-28.5 h 27.1 c -0.1,-2.4 -0.7,-4.6 -1.7,-6.7 -1.1,-2.2 -2.7,-4 -4.6,-5.3 -2,-1.3 -4.2,-1.8 -6.6,-1.8 -3.8,0 -7,1.4 -9.6,4.2 -2.3,2.5 -3.9,5.9 -4.6,9.6 z"
   id="path170" />
	</g>
	<g
   id="g176">
		<path
   class="st2"
   d="m 408.5,305.4 h -2.1 c -0.7,0 -1.3,-0.6 -1.3,-1.3 v -28 c 0,-4.2 -0.8,-7.4 -2.5,-9.3 -1.5,-1.8 -4.2,-2.8 -7.8,-2.8 -3.3,0 -6.3,1.1 -8.7,3.6 -2.5,2.4 -4.2,5.6 -5,9.3 v 27.4 c 0,0.7 -0.6,1.3 -1.3,1.3 h -2.1 c -0.7,0 -1.3,-0.6 -1.3,-1.3 v -43 c 0,-0.7 0.6,-1.3 1.3,-1.3 h 2.1 c 0.7,0 1.3,0.6 1.3,1.3 v 5 c 1.1,-1.5 2.5,-2.9 4,-4 2.9,-2.1 6.3,-3.1 9.8,-3.1 5,0 8.8,1.5 11.3,4.3 2.4,2.8 3.6,7.1 3.8,12.7 v 28 c -0.3,0.6 -0.8,1.2 -1.5,1.2 z"
   id="path174" />
	</g>
	<g
   id="g180">
		<path
   class="st2"
   d="m 429.5,306.2 c -3.5,0 -6.1,-1 -7.7,-3.1 -1.5,-2 -2.4,-4.9 -2.4,-8.9 v -29.4 h -6.6 c -0.7,0 -1.3,-0.6 -1.3,-1.3 v -2.1 c 0,-0.7 0.6,-1.3 1.3,-1.3 h 6.6 v -10.3 c 0,-0.7 0.6,-1.3 1.3,-1.3 h 2.2 c 0.7,0 1.3,0.6 1.3,1.3 v 10.3 h 8.4 c 0.7,0 1.3,0.6 1.3,1.3 v 2.1 c 0,0.7 -0.6,1.3 -1.3,1.3 h -8.4 V 294 c 0,2.8 0.4,4.7 1.3,6 1.1,1.7 3.6,1.8 8,1.3 0.7,-0.1 1.4,0.4 1.5,1.1 l 0.4,2 c 0.1,0.7 -0.3,1.3 -0.8,1.5 -1.1,0.2 -2.7,0.3 -5.1,0.3 z"
   id="path178" />
	</g>
	<g
   id="g184">
		<path
   class="st2"
   d="m 453.8,306.2 c -5,0 -9.2,-1.3 -12.4,-3.5 -3.3,-2.4 -5,-5.6 -5,-9.5 0,-0.7 0.6,-1.3 1.3,-1.3 h 2.1 c 0.7,0 1.3,0.6 1.3,1.3 0.1,2.7 1.3,4.6 3.3,6 2.2,1.5 5.3,2.2 9.2,2.2 3.5,0 6.4,-0.8 8.5,-2.4 2.1,-1.5 3.1,-3.3 3.1,-5.4 0,-4.6 -4,-7.5 -12.3,-9.3 -5.6,-1.3 -9.5,-2.7 -11.7,-4.6 -2.4,-2.1 -3.6,-4.9 -3.6,-8.4 0,-3.6 1.5,-6.6 4.5,-8.8 2.9,-2.2 6.7,-3.3 11.2,-3.3 4.9,0 8.9,1.3 12,3.6 3.1,2.5 4.7,5.9 4.7,9.9 0,0.7 -0.6,1.3 -1.3,1.3 h -2.2 c -0.7,0 -1.3,-0.6 -1.3,-1.3 0,-2.5 -1,-4.5 -3.2,-6.1 -2.2,-1.7 -5.2,-2.7 -8.7,-2.7 -3.5,0 -6.1,0.7 -8.1,2.2 -1.8,1.4 -2.8,3.1 -2.8,5.2 0,1.7 0.3,2.9 1,3.8 0.7,1 1.8,1.8 3.5,2.5 1.8,0.8 4.3,1.7 7.8,2.5 3.6,0.8 6.6,1.8 8.8,3.1 2.2,1.3 3.9,2.7 5,4.5 1.1,1.7 1.5,3.8 1.5,6.3 0,3.8 -1.5,7 -4.7,9.2 -2.8,1.9 -6.7,3 -11.5,3 z"
   id="path182" />
	</g>
</g>
</svg>
