<?xml version="1.0" encoding="UTF-8" standalone="no"?>
<svg
   width="128"
   height="128"
   viewBox="0 0 128 128"
   version="1.1"
   id="svg9"
   sodipodi:docname="ps2.svg"
   inkscape:version="1.1.2 (b8e25be833, 2022-02-05)"
   xmlns:inkscape="http://www.inkscape.org/namespaces/inkscape"
   xmlns:sodipodi="http://sodipodi.sourceforge.net/DTD/sodipodi-0.dtd"
   xmlns="http://www.w3.org/2000/svg"
   xmlns:svg="http://www.w3.org/2000/svg">
  <sodipodi:namedview
     id="namedview11"
     pagecolor="#505050"
     bordercolor="#eeeeee"
     borderopacity="1"
     inkscape:pageshadow="0"
     inkscape:pageopacity="0"
     inkscape:pagecheckerboard="0"
     showgrid="false"
     inkscape:zoom="5.6568543"
     inkscape:cx="44.636115"
     inkscape:cy="29.43332"
     inkscape:window-width="2560"
     inkscape:window-height="1351"
     inkscape:window-x="-9"
     inkscape:window-y="-9"
     inkscape:window-maximized="1"
     inkscape:current-layer="layer6"
     inkscape:lockguides="true"
     showguides="false"
     inkscape:snap-text-baseline="false"
     inkscape:snap-smooth-nodes="true"
     inkscape:snap-midpoints="true"
     inkscape:snap-object-midpoints="true"
     inkscape:snap-intersection-paths="true"
     inkscape:object-paths="true" />
  <defs
     id="defs4">
    <inkscape:path-effect
       effect="fillet_chamfer"
       id="path-effect1994"
       is_visible="true"
       lpeversion="1"
       satellites_param="F,0,0,1,0,0,0,1 @ F,0,0,1,0,0,0,1 @ F,0,0,1,0,0,0,1 @ F,0,1,1,0,1.875,0,1 @ F,0,0,1,0,0,0,1 @ F,0,0,1,0,0,0,1 @ F,0,0,1,0,0,0,1 @ F,0,0,1,0,0,0,1 @ F,0,0,1,0,1.875,0,1 @ F,0,0,1,0,0,0,1 @ F,0,0,1,0,0,0,1 @ F,0,0,1,0,0,0,1 @ F,0,0,1,0,0,0,1 @ F,0,0,1,0,0,0,1 @ F,0,0,1,0,0,0,1 @ F,0,0,1,0,0,0,1 | F,0,0,1,0,0,0,1 @ F,0,0,1,0,0,0,1 @ F,0,0,1,0,0,0,1 @ F,0,0,1,0,0,0,1 @ F,0,0,1,0,0,0,1 @ F,0,0,1,0,0,0,1 @ F,0,0,1,0,0,0,1 @ F,0,0,1,0,1.75,0,1 @ F,0,0,1,0,1.75,0,1 @ F,0,0,1,0,0,0,1 | F,0,0,1,0,0,0,1 @ F,0,0,1,0,2.032932,0,1 @ F,0,0,1,0,2.032932,0,1 @ F,0,0,1,0,0,0,1 @ F,0,0,1,0,0,0,1 @ F,0,0,1,0,0,0,1 @ F,0,0,1,0,0,0,1 @ F,0,0,1,0,0,0,1 @ F,0,0,1,0,2.032932,0,1 @ F,0,0,1,0,2.032932,0,1 @ F,0,0,1,0,0,0,1 @ F,0,0,1,0,0,0,1 @ F,0,0,1,0,0,0,1 @ F,0,0,1,0,0,0,1 | F,0,0,1,0,2.032932,0,1 @ F,0,0,1,0,0,0,1 @ F,0,0,1,0,0,0,1 @ F,0,0,1,0,0,0,1 @ F,0,0,1,0,1.1490485,0,1 @ F,0,0,1,0,2.032932,0,1 @ F,0,0,1,0,2.032932,0,1 | F,0,0,1,0,2.032932,0,1 @ F,0,0,1,0,0,0,1 @ F,0,0,1,0,0,0,1 @ F,0,0,1,0,0,0,1 @ F,0,0,1,0,2.032932,0,1 | F,0,0,1,0,0,0,1 @ F,0,0,1,0,1.1490485,0,1 @ F,0,0,1,0,1.1490485,0,1 @ F,0,0,1,0,0,0,1 @ F,0,0,1,0,0,0,1 @ F,0,0,1,0,0,0,1 | F,0,0,1,0,1.1490485,0,1 @ F,0,0,1,0,1.1490485,0,1 @ F,0,0,1,0,0,0,1 @ F,0,0,1,0,0,0,1 @ F,0,0,1,0,0,0,1 | F,0,0,1,0,1.75,0,1 @ F,0,0,1,0,1.75,0,1 @ F,0,0,1,0,0,0,1 @ F,0,0,1,0,0,0,1 @ F,0,0,1,0,0,0,1 @ F,0,0,1,0,0,0,1"
       unit="px"
       method="arc"
       mode="F"
       radius="0"
       chamfer_steps="1"
       flexible="false"
       use_knot_distance="true"
       apply_no_radius="true"
       apply_with_radius="true"
       only_selected="false"
       hide_knots="false" />
    <inkscape:path-effect
       effect="fillet_chamfer"
       id="path-effect46948"
       is_visible="true"
       lpeversion="1"
       satellites_param="F,0,0,1,0,0,0,1 @ F,0,0,1,0,0,0,1 @ F,0,0,1,0,0,0,1 @ F,0,0,1,0,0,0,1 @ F,0,0,1,0,0,0,1 @ F,0,0,1,0,0,0,1 @ F,0,0,1,0,0,0,1 @ F,0,0,1,0,0,0,1 @ F,0,0,1,0,0,0,1 @ F,0,0,1,0,0,0,1 | F,0,1,1,0,6.1563366,0,1 @ F,0,0,1,0,6.1563366,0,1 @ F,0,1,1,0,6.1563366,0,1"
       unit="px"
       method="arc"
       mode="F"
       radius="0"
       chamfer_steps="1"
       flexible="false"
       use_knot_distance="true"
       apply_no_radius="true"
       apply_with_radius="true"
       only_selected="false"
       hide_knots="false" />
    <inkscape:path-effect
       effect="fillet_chamfer"
       id="path-effect42810"
       is_visible="true"
       lpeversion="1"
       satellites_param="F,0,0,1,0,0,0,1 @ F,0,0,1,0,0,0,1 @ F,0,0,1,0,0,0,1 @ F,0,0,1,0,0,0,1 @ F,0,0,1,0,0,0,1 @ F,0,0,1,0,0,0,1 @ F,0,0,1,0,0,0,1 @ F,0,0,1,0,0,0,1 @ F,0,0,1,0,0,0,1 @ F,0,0,1,0,0,0,1 | F,0,0,1,0,0,0,1 @ F,0,1,1,0,6.3148129,0,1 @ F,0,0,1,0,0,0,1 @ F,0,0,1,0,0,0,1 @ F,0,0,1,0,6.3148129,0,1 @ F,0,0,1,0,0,0,1 @ F,0,0,1,0,0,0,1 @ F,0,0,1,0,0,0,1 @ F,0,0,1,0,0,0,1 @ F,0,0,1,0,0,0,1"
       unit="px"
       method="auto"
       mode="F"
       radius="0"
       chamfer_steps="1"
       flexible="false"
       use_knot_distance="true"
       apply_no_radius="true"
       apply_with_radius="true"
       only_selected="false"
       hide_knots="false" />
    <marker
       style="overflow:visible"
       id="Arrow1Lstart"
       refX="0"
       refY="0"
       orient="auto"
       inkscape:stockid="Arrow1Lstart"
       inkscape:isstock="true">
      <path
         transform="matrix(0.8,0,0,0.8,10,0)"
         style="fill:context-stroke;fill-rule:evenodd;stroke:context-stroke;stroke-width:1pt"
         d="M 0,0 5,-5 -12.5,0 5,5 Z"
         id="path38488" />
    </marker>
    <inkscape:path-effect
       effect="fillet_chamfer"
       id="path-effect1808"
       is_visible="true"
       lpeversion="1"
       satellites_param="F,0,0,1,0,0,0,1 @ F,0,0,1,0,0,0,1 @ F,0,0,1,0,0,0,1 @ F,0,0,1,0,0,0,1 @ F,0,0,1,0,0,0,1 @ F,0,0,1,0,0,0,1 @ F,0,0,1,0,0,0,1 @ F,0,0,1,0,0,0,1 @ F,0,0,1,0,0,0,1 @ F,0,0,1,0,0,0,1 @ F,0,0,1,0,0,0,1 @ F,0,0,1,0,0,0,1 @ F,0,0,1,0,0,0,1 @ F,0,0,1,0,0,0,1 | F,0,0,1,0,0,0,1 @ F,0,1,1,0,10.229935,0,1 @ F,0,0,1,0,0,0,1 @ F,0,0,1,0,0,0,1 @ F,0,0,1,0,10.229935,0,1 @ F,0,0,1,0,0,0,1 @ F,0,0,1,0,0,0,1 @ F,0,0,1,0,0,0,1 @ F,0,0,1,0,0,0,1 @ F,0,0,1,0,0,0,1 @ F,0,0,1,0,0,0,1 @ F,0,0,1,0,0,0,1"
       unit="px"
       method="arc"
       mode="F"
       radius="0"
       chamfer_steps="1"
       flexible="false"
       use_knot_distance="true"
       apply_no_radius="true"
       apply_with_radius="true"
       only_selected="false"
       hide_knots="false" />
    <style
       id="style2">
      .cls-1 {
        fill: none;
        stroke: #000;
        stroke-width: 16px;
      }

      .cls-1, .cls-2 {
        fill-rule: evenodd;
      }
    </style>
  </defs>
  <g
     inkscape:groupmode="layer"
     id="layer6"
     inkscape:label="psd"
     style="display:inline">
    <path
       id="rect23875"
       style="fill:#ffffff;stroke-width:0.63331"
       d="M 91.758426,0.00413983 C 87.59658,0.11058902 36.158391,0.12905944 36.158391,0.12905944 26.081362,0.12905931 17.790813,8.4181796 17.790813,18.493472 v 23.403125 a 1.875,1.875 135 0 1 -1.875,1.875 H 8.8671064 C 3.9547299,43.771597 0,47.725646 0,52.637176 v 43.053958 c 0,4.911526 3.9547299,8.865576 8.8671064,8.865576 h 7.0487066 a 1.875,1.875 45 0 1 1.875,1.875 v 3.20387 c 0,10.0753 8.290549,18.36442 18.367578,18.36442 H 109.63242 C 119.70945,128 127.80677,120.95822 128,110.88479 V 33.488766 c -0.12499,-3.873925 -1.02858,-7.037227 -3.94368,-10.16301 C 121.14121,20.199974 105.75064,7.1041989 102.56645,4.4802185 99.382256,1.8562373 95.920272,-0.10230937 91.758426,0.00413983 Z M 36.158391,11.52766 h 53.040595 c 2.208733,1.24e-4 3.99923,1.790314 3.999357,3.998663 v 12.406615 c 0,2.597547 2.091623,4.687576 4.689616,4.687576 h 14.712121 c 2.20873,1.27e-4 3.99923,1.790316 3.99935,3.998663 v 5.40242 a 1.75,1.75 135 0 1 -1.75,1.75 l -83.908051,0 a 1.75,1.75 45 0 1 -1.75,-1.75 V 18.493472 c 0,-3.957638 3.008692,-6.965812 6.967012,-6.965812 z m 27.306745,44.434108 c 3.778084,0 7.550399,0.655255 11.1036,2.213297 a 2.1155118,2.1155118 69.292896 0 1 1.047175,2.770229 l -1.546192,3.728339 a 1.9203534,1.9203534 159.62156 0 1 -2.594133,0.963638 c -2.369431,-1.090839 -4.929207,-1.832779 -8.06117,-1.832779 -2.195008,0 -5.749772,0.505958 -5.749772,3.207091 0,2.701114 3.882144,2.966809 7.964079,3.870034 4.081928,0.903225 12.236803,3.283823 12.236803,10.749267 0,7.465457 -8.938151,11.398601 -15.775982,11.398601 -4.639216,0 -9.10833,-0.856082 -13.233917,-2.934209 a 2.1726304,2.1726304 71.496003 0 1 -0.951404,-2.842787 l 1.655503,-3.722072 a 1.9316565,1.9316565 161.13258 0 1 2.614873,-0.89361 c 3.246244,1.535242 7.335774,2.489549 9.965665,2.549953 3.143623,0.07223 6.00419,-0.246786 5.800487,-2.901596 C 67.737023,79.63036 64.089678,79.172421 59.979147,78.263003 55.868613,77.353579 47.662975,75.05481 47.690386,67.518682 c 0.02742,-7.536148 6.210189,-11.556914 15.77475,-11.556914 z m -50.62047,0.712413 h 14.251469 c 11.617776,-0.214924 15.502593,6.190967 15.502593,12.644086 0,7.098219 -2.86535,13.591775 -15.502593,13.67931 h -5.130168 a 1.1402326,1.1402326 134.77936 0 0 -1.140199,1.149014 l 0.04724,6.133898 a 2.0173347,2.0173347 134.77936 0 1 -2.017275,2.032872 h -6.01107 a 2.032932,2.032932 45 0 1 -2.032932,-2.032932 l 0,-31.573316 a 2.032932,2.032932 135 0 1 2.032932,-2.032932 z m 73.720203,0.0013 h 14.810611 c 13.04145,0 19.06337,7.287156 19.50936,18.222176 0.44599,10.935051 -7.96463,17.419481 -19.50936,17.419481 H 86.564869 A 2.032932,2.032932 45 0 1 84.531937,90.284206 V 58.708413 a 2.032932,2.032932 135 0 1 2.032932,-2.032932 z m -59.932624,7.920614 c -2.040671,0 -3.277805,0.01203 -4.593347,0.01732 a 1.1525605,1.1525605 134.93788 0 0 -1.148995,1.15149 v 8.139493 a 1.1490485,1.1490485 45 0 0 1.149048,1.149049 l 4.446087,0 c 3.081763,0 6.157033,-1.640847 6.258188,-5.193437 0,-3.500719 -3.496,-5.263944 -6.110981,-5.263937 z m 67.97662,1.275201 v 17.253669 a 1.1490485,1.1490485 45 0 0 1.149048,1.149048 h 5.211817 c 5.75493,0 9.76767,-3.961336 9.76767,-9.292279 0,-5.330929 -3.46107,-10.259487 -9.76767,-10.259487 l -5.211817,0 a 1.1490485,1.1490485 135 0 0 -1.149048,1.149049 z m -63.667486,38.685414 83.908051,0 a 1.75,1.75 45 0 1 1.75,1.75 l 0,3.32887 c 0,3.95764 -3.00869,6.96582 -6.96701,6.96582 H 36.158391 c -3.95832,0 -6.967012,-3.00818 -6.967012,-6.96582 v -3.32887 a 1.75,1.75 135 0 1 1.75,-1.75 z"
       sodipodi:nodetypes="scscsssscsssccssssccssccccsssccsssssccscsssccsccccccssscccccscccccssscccssssc" />
  </g>
</svg>
