<?xml version="1.0" encoding="UTF-8" standalone="no"?>
<svg
   width="128"
   height="128"
   viewBox="0 0 128 128"
   version="1.1"
   id="svg9"
   sodipodi:docname="vid.svg"
   inkscape:version="1.1.2 (b8e25be833, 2022-02-05)"
   xmlns:inkscape="http://www.inkscape.org/namespaces/inkscape"
   xmlns:sodipodi="http://sodipodi.sourceforge.net/DTD/sodipodi-0.dtd"
   xmlns="http://www.w3.org/2000/svg"
   xmlns:svg="http://www.w3.org/2000/svg">
  <sodipodi:namedview
     id="namedview11"
     pagecolor="#505050"
     bordercolor="#eeeeee"
     borderopacity="1"
     inkscape:pageshadow="0"
     inkscape:pageopacity="0"
     inkscape:pagecheckerboard="0"
     showgrid="false"
     inkscape:zoom="4"
     inkscape:cx="46.125"
     inkscape:cy="88.375"
     inkscape:window-width="2560"
     inkscape:window-height="1351"
     inkscape:window-x="-9"
     inkscape:window-y="-9"
     inkscape:window-maximized="1"
     inkscape:current-layer="layer8"
     inkscape:lockguides="true"
     showguides="false"
     inkscape:snap-text-baseline="false"
     inkscape:snap-smooth-nodes="true"
     inkscape:snap-midpoints="true"
     inkscape:snap-object-midpoints="true" />
  <defs
     id="defs4">
    <inkscape:path-effect
       effect="fillet_chamfer"
       id="path-effect46948"
       is_visible="true"
       lpeversion="1"
       satellites_param="F,0,0,1,0,0,0,1 @ F,0,0,1,0,0,0,1 @ F,0,0,1,0,0,0,1 @ F,0,0,1,0,0,0,1 @ F,0,0,1,0,0,0,1 @ F,0,0,1,0,0,0,1 @ F,0,0,1,0,0,0,1 @ F,0,0,1,0,0,0,1 @ F,0,0,1,0,0,0,1 @ F,0,0,1,0,0,0,1 | F,0,1,1,0,6.1563366,0,1 @ F,0,0,1,0,6.1563366,0,1 @ F,0,1,1,0,6.1563366,0,1"
       unit="px"
       method="arc"
       mode="F"
       radius="0"
       chamfer_steps="1"
       flexible="false"
       use_knot_distance="true"
       apply_no_radius="true"
       apply_with_radius="true"
       only_selected="false"
       hide_knots="false" />
    <inkscape:path-effect
       effect="fillet_chamfer"
       id="path-effect42810"
       is_visible="true"
       lpeversion="1"
       satellites_param="F,0,0,1,0,0,0,1 @ F,0,0,1,0,0,0,1 @ F,0,0,1,0,0,0,1 @ F,0,0,1,0,0,0,1 @ F,0,0,1,0,0,0,1 @ F,0,0,1,0,0,0,1 @ F,0,0,1,0,0,0,1 @ F,0,0,1,0,0,0,1 @ F,0,0,1,0,0,0,1 @ F,0,0,1,0,0,0,1 | F,0,0,1,0,0,0,1 @ F,0,1,1,0,6.3148129,0,1 @ F,0,0,1,0,0,0,1 @ F,0,0,1,0,0,0,1 @ F,0,0,1,0,6.3148129,0,1 @ F,0,0,1,0,0,0,1 @ F,0,0,1,0,0,0,1 @ F,0,0,1,0,0,0,1 @ F,0,0,1,0,0,0,1 @ F,0,0,1,0,0,0,1"
       unit="px"
       method="auto"
       mode="F"
       radius="0"
       chamfer_steps="1"
       flexible="false"
       use_knot_distance="true"
       apply_no_radius="true"
       apply_with_radius="true"
       only_selected="false"
       hide_knots="false" />
    <marker
       style="overflow:visible"
       id="Arrow1Lstart"
       refX="0"
       refY="0"
       orient="auto"
       inkscape:stockid="Arrow1Lstart"
       inkscape:isstock="true">
      <path
         transform="matrix(0.8,0,0,0.8,10,0)"
         style="fill:context-stroke;fill-rule:evenodd;stroke:context-stroke;stroke-width:1pt"
         d="M 0,0 5,-5 -12.5,0 5,5 Z"
         id="path38488" />
    </marker>
    <inkscape:path-effect
       effect="fillet_chamfer"
       id="path-effect1808"
       is_visible="true"
       lpeversion="1"
       satellites_param="F,0,0,1,0,0,0,1 @ F,0,0,1,0,0,0,1 @ F,0,0,1,0,0,0,1 @ F,0,0,1,0,0,0,1 @ F,0,0,1,0,0,0,1 @ F,0,0,1,0,0,0,1 @ F,0,0,1,0,0,0,1 @ F,0,0,1,0,0,0,1 @ F,0,0,1,0,0,0,1 @ F,0,0,1,0,0,0,1 @ F,0,0,1,0,0,0,1 @ F,0,0,1,0,0,0,1 @ F,0,0,1,0,0,0,1 @ F,0,0,1,0,0,0,1 | F,0,0,1,0,0,0,1 @ F,0,1,1,0,10.229935,0,1 @ F,0,0,1,0,0,0,1 @ F,0,0,1,0,0,0,1 @ F,0,0,1,0,10.229935,0,1 @ F,0,0,1,0,0,0,1 @ F,0,0,1,0,0,0,1 @ F,0,0,1,0,0,0,1 @ F,0,0,1,0,0,0,1 @ F,0,0,1,0,0,0,1 @ F,0,0,1,0,0,0,1 @ F,0,0,1,0,0,0,1"
       unit="px"
       method="arc"
       mode="F"
       radius="0"
       chamfer_steps="1"
       flexible="false"
       use_knot_distance="true"
       apply_no_radius="true"
       apply_with_radius="true"
       only_selected="false"
       hide_knots="false" />
    <style
       id="style2">
      .cls-1 {
        fill: none;
        stroke: #000;
        stroke-width: 16px;
      }

      .cls-1, .cls-2 {
        fill-rule: evenodd;
      }
    </style>
  </defs>
  <g
     inkscape:groupmode="layer"
     id="layer8"
     inkscape:label="Layer 4"
     style="display:inline;opacity:1">
    <path
       id="rect47687"
       style="fill:#ffffff;fill-opacity:1;stroke-width:0;paint-order:fill markers stroke"
       d="m 86.854454,99.774765 c -2.802462,0 -5.058596,2.256165 -5.058596,5.058655 v 1.56848 H 5.0585954 C 2.2561335,106.4019 0,108.65807 0,111.46056 v 3.7693 c 0,2.8025 2.2561335,5.05865 5.0585954,5.05865 H 81.795858 v 2.65284 c 0,2.80249 2.256134,5.05865 5.058596,5.05865 h 3.768008 c 2.802462,0 5.058595,-2.25616 5.058595,-5.05865 v -2.65284 H 122.9414 c 2.80246,0 5.0586,-2.25615 5.0586,-5.05865 v -3.7693 c 0,-2.80249 -2.25614,-5.05866 -5.0586,-5.05866 H 95.681057 v -1.56848 c 0,-2.80249 -2.256133,-5.058655 -5.058595,-5.058655 z M 18.969732,0 C 8.5604557,0 0,8.5605633 0,18.96997 v 58.141225 c 0,10.409411 8.5604557,18.96997 18.969732,18.96997 H 109.03026 C 119.43954,96.081165 128,87.520606 128,77.111195 V 18.96997 C 128,8.5605626 119.43954,0 109.03026,0 Z m 0,11.381981 h 90.060528 c 4.25808,0 7.5879,3.329855 7.5879,7.587989 v 58.141225 c 0,4.258138 -3.32982,7.587988 -7.5879,7.587988 H 18.969732 c -4.25808,0 -7.587893,-3.32985 -7.587893,-7.587988 V 18.96997 c 0,-4.258134 3.329813,-7.587989 7.587893,-7.587989 z m 29.622917,9.218221 c -0.387956,-0.02517 -0.775819,-0.02392 -1.160908,0.0013 -4.621062,0.301867 -8.871902,4.130462 -8.872302,9.133002 v 36.995151 c 5.46e-4,6.670043 7.557255,11.253707 13.472709,8.172149 11.881032,-6.188213 14.3603,-7.672993 35.475623,-18.477195 l 0.01853,-0.0099 0.01853,-0.0099 c 6.31565,-3.289686 6.31565,-13.057093 0,-16.346779 L 52.032155,21.562309 c -1.109149,-0.577795 -2.275631,-0.886556 -3.439499,-0.962084 z m 3.633396,14.238591 c 0.405789,-0.01339 0.808177,0.07806 1.168318,0.265531 l 21.750972,11.328875 c 1.450112,0.755358 1.445066,2.832036 -0.0087,3.580336 -9.949948,5.129017 -15.615346,8.114988 -21.748447,11.335051 -1.567326,0.821997 -3.447096,-0.314904 -3.446909,-2.084721 v -22.06494 c 1.81e-4,-1.274266 1.011192,-2.318627 2.284766,-2.360132 z"
       sodipodi:nodetypes="sscsssscsssscsssscssssssssssssssssssssscccccccccccccccccccc" />
  </g>
</svg>
